<svg xmlns="http://www.w3.org/2000/svg" width="1200" height="1200" viewBox="0 0 600 600" role="img" aria-labelledby="title description">
<title id="title">AP setup URL QR screen</title>
<desc id="description">Front-view drawing of an M5Stack AtomS3R. Only the device and its screen are shown. Network values are examples.</desc>
<defs>
  <linearGradient id="case" x1="0" y1="0" x2="0.8" y2="1">
    <stop offset="0" stop-color="#f5f5f2"/><stop offset="0.45" stop-color="#e2e3df"/><stop offset="1" stop-color="#caccC8"/>
  </linearGradient>
  <linearGradient id="well" x1="0" y1="0" x2="0" y2="1">
    <stop offset="0" stop-color="#a5a9a5"/><stop offset="1" stop-color="#f6f6f3"/>
  </linearGradient>
  <clipPath id="lcd"><rect width="128" height="128" rx="0.7"/></clipPath>
</defs>
<rect x="40" y="40" width="520" height="520" rx="62" fill="url(#case)" stroke="#bfc2bd" stroke-width="2"/>
<rect x="45" y="45" width="510" height="510" rx="58" fill="none" stroke="#ffffff" stroke-opacity="0.65" stroke-width="2"/>
<rect x="106" y="106" width="388" height="388" rx="22" fill="url(#well)"/>
<rect x="118" y="118" width="364" height="364" rx="10" fill="#262c2e" stroke="#737875" stroke-width="2"/>
<g transform="translate(124 124) scale(2.75)" clip-path="url(#lcd)">
<rect x="0" y="0" width="128" height="128" rx="0" fill="#000000"/>
<path fill="#ffffff" shape-rendering="crispEdges" d="M20,1h1v1h-1zM21,1h1v1h-1zM22,1h1v1h-1zM19,2h1v1h-1zM23,2h1v1h-1zM19,3h1v1h-1zM23,3h1v1h-1zM19,4h1v1h-1zM23,4h1v1h-1zM19,5h1v1h-1zM23,5h1v1h-1zM19,6h1v1h-1zM23,6h1v1h-1zM20,7h1v1h-1zM21,7h1v1h-1zM22,7h1v1h-1zM25,1h1v1h-1zM26,1h1v1h-1zM27,1h1v1h-1zM28,1h1v1h-1zM25,2h1v1h-1zM29,2h1v1h-1zM25,3h1v1h-1zM29,3h1v1h-1zM25,4h1v1h-1zM26,4h1v1h-1zM27,4h1v1h-1zM28,4h1v1h-1zM25,5h1v1h-1zM25,6h1v1h-1zM25,7h1v1h-1zM31,1h1v1h-1zM32,1h1v1h-1zM33,1h1v1h-1zM34,1h1v1h-1zM35,1h1v1h-1zM31,2h1v1h-1zM31,3h1v1h-1zM31,4h1v1h-1zM32,4h1v1h-1zM33,4h1v1h-1zM34,4h1v1h-1zM31,5h1v1h-1zM31,6h1v1h-1zM31,7h1v1h-1zM32,7h1v1h-1zM33,7h1v1h-1zM34,7h1v1h-1zM35,7h1v1h-1zM37,1h1v1h-1zM41,1h1v1h-1zM37,2h1v1h-1zM38,2h1v1h-1zM41,2h1v1h-1zM37,3h1v1h-1zM39,3h1v1h-1zM41,3h1v1h-1zM37,4h1v1h-1zM40,4h1v1h-1zM41,4h1v1h-1zM37,5h1v1h-1zM41,5h1v1h-1zM37,6h1v1h-1zM41,6h1v1h-1zM37,7h1v1h-1zM41,7h1v1h-1zM50,1h1v1h-1zM51,1h1v1h-1zM52,1h1v1h-1zM53,1h1v1h-1zM49,2h1v1h-1zM49,3h1v1h-1zM50,4h1v1h-1zM51,4h1v1h-1zM52,4h1v1h-1zM53,5h1v1h-1zM53,6h1v1h-1zM49,7h1v1h-1zM50,7h1v1h-1zM51,7h1v1h-1zM52,7h1v1h-1zM55,1h1v1h-1zM56,1h1v1h-1zM57,1h1v1h-1zM58,1h1v1h-1zM59,1h1v1h-1zM55,2h1v1h-1zM55,3h1v1h-1zM55,4h1v1h-1zM56,4h1v1h-1zM57,4h1v1h-1zM58,4h1v1h-1zM55,5h1v1h-1zM55,6h1v1h-1zM55,7h1v1h-1zM56,7h1v1h-1zM57,7h1v1h-1zM58,7h1v1h-1zM59,7h1v1h-1zM61,1h1v1h-1zM62,1h1v1h-1zM63,1h1v1h-1zM64,1h1v1h-1zM65,1h1v1h-1zM63,2h1v1h-1zM63,3h1v1h-1zM63,4h1v1h-1zM63,5h1v1h-1zM63,6h1v1h-1zM63,7h1v1h-1zM67,1h1v1h-1zM71,1h1v1h-1zM67,2h1v1h-1zM71,2h1v1h-1zM67,3h1v1h-1zM71,3h1v1h-1zM67,4h1v1h-1zM71,4h1v1h-1zM67,5h1v1h-1zM71,5h1v1h-1zM67,6h1v1h-1zM71,6h1v1h-1zM68,7h1v1h-1zM69,7h1v1h-1zM70,7h1v1h-1zM73,1h1v1h-1zM74,1h1v1h-1zM75,1h1v1h-1zM76,1h1v1h-1zM73,2h1v1h-1zM77,2h1v1h-1zM73,3h1v1h-1zM77,3h1v1h-1zM73,4h1v1h-1zM74,4h1v1h-1zM75,4h1v1h-1zM76,4h1v1h-1zM73,5h1v1h-1zM73,6h1v1h-1zM73,7h1v1h-1zM85,1h1v1h-1zM86,1h1v1h-1zM87,1h1v1h-1zM88,1h1v1h-1zM85,2h1v1h-1zM89,2h1v1h-1zM85,3h1v1h-1zM89,3h1v1h-1zM85,4h1v1h-1zM86,4h1v1h-1zM87,4h1v1h-1zM88,4h1v1h-1zM85,5h1v1h-1zM85,6h1v1h-1zM85,7h1v1h-1zM92,1h1v1h-1zM93,1h1v1h-1zM94,1h1v1h-1zM91,2h1v1h-1zM95,2h1v1h-1zM91,3h1v1h-1zM95,3h1v1h-1zM91,4h1v1h-1zM92,4h1v1h-1zM93,4h1v1h-1zM94,4h1v1h-1zM95,4h1v1h-1zM91,5h1v1h-1zM95,5h1v1h-1zM91,6h1v1h-1zM95,6h1v1h-1zM91,7h1v1h-1zM95,7h1v1h-1zM98,1h1v1h-1zM99,1h1v1h-1zM100,1h1v1h-1zM101,1h1v1h-1zM97,2h1v1h-1zM97,3h1v1h-1zM97,4h1v1h-1zM99,4h1v1h-1zM100,4h1v1h-1zM101,4h1v1h-1zM97,5h1v1h-1zM101,5h1v1h-1zM97,6h1v1h-1zM101,6h1v1h-1zM98,7h1v1h-1zM99,7h1v1h-1zM100,7h1v1h-1zM101,7h1v1h-1zM103,1h1v1h-1zM104,1h1v1h-1zM105,1h1v1h-1zM106,1h1v1h-1zM107,1h1v1h-1zM103,2h1v1h-1zM103,3h1v1h-1zM103,4h1v1h-1zM104,4h1v1h-1zM105,4h1v1h-1zM106,4h1v1h-1zM103,5h1v1h-1zM103,6h1v1h-1zM103,7h1v1h-1zM104,7h1v1h-1zM105,7h1v1h-1zM106,7h1v1h-1zM107,7h1v1h-1z"><title>OPEN SETUP PAGE</title></path>
<rect x="8" y="10" width="112" height="112" rx="0" fill="#ffffff"/>
<rect x="20" y="22" width="3" height="3" rx="0" fill="#000000"/>
<rect x="23" y="22" width="3" height="3" rx="0" fill="#000000"/>
<rect x="26" y="22" width="3" height="3" rx="0" fill="#000000"/>
<rect x="29" y="22" width="3" height="3" rx="0" fill="#000000"/>
<rect x="32" y="22" width="3" height="3" rx="0" fill="#000000"/>
<rect x="35" y="22" width="3" height="3" rx="0" fill="#000000"/>
<rect x="38" y="22" width="3" height="3" rx="0" fill="#000000"/>
<rect x="44" y="22" width="3" height="3" rx="0" fill="#000000"/>
<rect x="59" y="22" width="3" height="3" rx="0" fill="#000000"/>
<rect x="62" y="22" width="3" height="3" rx="0" fill="#000000"/>
<rect x="68" y="22" width="3" height="3" rx="0" fill="#000000"/>
<rect x="74" y="22" width="3" height="3" rx="0" fill="#000000"/>
<rect x="77" y="22" width="3" height="3" rx="0" fill="#000000"/>
<rect x="86" y="22" width="3" height="3" rx="0" fill="#000000"/>
<rect x="89" y="22" width="3" height="3" rx="0" fill="#000000"/>
<rect x="92" y="22" width="3" height="3" rx="0" fill="#000000"/>
<rect x="95" y="22" width="3" height="3" rx="0" fill="#000000"/>
<rect x="98" y="22" width="3" height="3" rx="0" fill="#000000"/>
<rect x="101" y="22" width="3" height="3" rx="0" fill="#000000"/>
<rect x="104" y="22" width="3" height="3" rx="0" fill="#000000"/>
<rect x="20" y="25" width="3" height="3" rx="0" fill="#000000"/>
<rect x="38" y="25" width="3" height="3" rx="0" fill="#000000"/>
<rect x="44" y="25" width="3" height="3" rx="0" fill="#000000"/>
<rect x="53" y="25" width="3" height="3" rx="0" fill="#000000"/>
<rect x="56" y="25" width="3" height="3" rx="0" fill="#000000"/>
<rect x="59" y="25" width="3" height="3" rx="0" fill="#000000"/>
<rect x="62" y="25" width="3" height="3" rx="0" fill="#000000"/>
<rect x="65" y="25" width="3" height="3" rx="0" fill="#000000"/>
<rect x="74" y="25" width="3" height="3" rx="0" fill="#000000"/>
<rect x="80" y="25" width="3" height="3" rx="0" fill="#000000"/>
<rect x="86" y="25" width="3" height="3" rx="0" fill="#000000"/>
<rect x="104" y="25" width="3" height="3" rx="0" fill="#000000"/>
<rect x="20" y="28" width="3" height="3" rx="0" fill="#000000"/>
<rect x="26" y="28" width="3" height="3" rx="0" fill="#000000"/>
<rect x="29" y="28" width="3" height="3" rx="0" fill="#000000"/>
<rect x="32" y="28" width="3" height="3" rx="0" fill="#000000"/>
<rect x="38" y="28" width="3" height="3" rx="0" fill="#000000"/>
<rect x="44" y="28" width="3" height="3" rx="0" fill="#000000"/>
<rect x="47" y="28" width="3" height="3" rx="0" fill="#000000"/>
<rect x="56" y="28" width="3" height="3" rx="0" fill="#000000"/>
<rect x="62" y="28" width="3" height="3" rx="0" fill="#000000"/>
<rect x="71" y="28" width="3" height="3" rx="0" fill="#000000"/>
<rect x="74" y="28" width="3" height="3" rx="0" fill="#000000"/>
<rect x="77" y="28" width="3" height="3" rx="0" fill="#000000"/>
<rect x="80" y="28" width="3" height="3" rx="0" fill="#000000"/>
<rect x="86" y="28" width="3" height="3" rx="0" fill="#000000"/>
<rect x="92" y="28" width="3" height="3" rx="0" fill="#000000"/>
<rect x="95" y="28" width="3" height="3" rx="0" fill="#000000"/>
<rect x="98" y="28" width="3" height="3" rx="0" fill="#000000"/>
<rect x="104" y="28" width="3" height="3" rx="0" fill="#000000"/>
<rect x="20" y="31" width="3" height="3" rx="0" fill="#000000"/>
<rect x="26" y="31" width="3" height="3" rx="0" fill="#000000"/>
<rect x="29" y="31" width="3" height="3" rx="0" fill="#000000"/>
<rect x="32" y="31" width="3" height="3" rx="0" fill="#000000"/>
<rect x="38" y="31" width="3" height="3" rx="0" fill="#000000"/>
<rect x="44" y="31" width="3" height="3" rx="0" fill="#000000"/>
<rect x="47" y="31" width="3" height="3" rx="0" fill="#000000"/>
<rect x="50" y="31" width="3" height="3" rx="0" fill="#000000"/>
<rect x="56" y="31" width="3" height="3" rx="0" fill="#000000"/>
<rect x="71" y="31" width="3" height="3" rx="0" fill="#000000"/>
<rect x="77" y="31" width="3" height="3" rx="0" fill="#000000"/>
<rect x="80" y="31" width="3" height="3" rx="0" fill="#000000"/>
<rect x="86" y="31" width="3" height="3" rx="0" fill="#000000"/>
<rect x="92" y="31" width="3" height="3" rx="0" fill="#000000"/>
<rect x="95" y="31" width="3" height="3" rx="0" fill="#000000"/>
<rect x="98" y="31" width="3" height="3" rx="0" fill="#000000"/>
<rect x="104" y="31" width="3" height="3" rx="0" fill="#000000"/>
<rect x="20" y="34" width="3" height="3" rx="0" fill="#000000"/>
<rect x="26" y="34" width="3" height="3" rx="0" fill="#000000"/>
<rect x="29" y="34" width="3" height="3" rx="0" fill="#000000"/>
<rect x="32" y="34" width="3" height="3" rx="0" fill="#000000"/>
<rect x="38" y="34" width="3" height="3" rx="0" fill="#000000"/>
<rect x="47" y="34" width="3" height="3" rx="0" fill="#000000"/>
<rect x="50" y="34" width="3" height="3" rx="0" fill="#000000"/>
<rect x="56" y="34" width="3" height="3" rx="0" fill="#000000"/>
<rect x="71" y="34" width="3" height="3" rx="0" fill="#000000"/>
<rect x="77" y="34" width="3" height="3" rx="0" fill="#000000"/>
<rect x="80" y="34" width="3" height="3" rx="0" fill="#000000"/>
<rect x="86" y="34" width="3" height="3" rx="0" fill="#000000"/>
<rect x="92" y="34" width="3" height="3" rx="0" fill="#000000"/>
<rect x="95" y="34" width="3" height="3" rx="0" fill="#000000"/>
<rect x="98" y="34" width="3" height="3" rx="0" fill="#000000"/>
<rect x="104" y="34" width="3" height="3" rx="0" fill="#000000"/>
<rect x="20" y="37" width="3" height="3" rx="0" fill="#000000"/>
<rect x="38" y="37" width="3" height="3" rx="0" fill="#000000"/>
<rect x="44" y="37" width="3" height="3" rx="0" fill="#000000"/>
<rect x="47" y="37" width="3" height="3" rx="0" fill="#000000"/>
<rect x="50" y="37" width="3" height="3" rx="0" fill="#000000"/>
<rect x="68" y="37" width="3" height="3" rx="0" fill="#000000"/>
<rect x="71" y="37" width="3" height="3" rx="0" fill="#000000"/>
<rect x="77" y="37" width="3" height="3" rx="0" fill="#000000"/>
<rect x="86" y="37" width="3" height="3" rx="0" fill="#000000"/>
<rect x="104" y="37" width="3" height="3" rx="0" fill="#000000"/>
<rect x="20" y="40" width="3" height="3" rx="0" fill="#000000"/>
<rect x="23" y="40" width="3" height="3" rx="0" fill="#000000"/>
<rect x="26" y="40" width="3" height="3" rx="0" fill="#000000"/>
<rect x="29" y="40" width="3" height="3" rx="0" fill="#000000"/>
<rect x="32" y="40" width="3" height="3" rx="0" fill="#000000"/>
<rect x="35" y="40" width="3" height="3" rx="0" fill="#000000"/>
<rect x="38" y="40" width="3" height="3" rx="0" fill="#000000"/>
<rect x="44" y="40" width="3" height="3" rx="0" fill="#000000"/>
<rect x="50" y="40" width="3" height="3" rx="0" fill="#000000"/>
<rect x="56" y="40" width="3" height="3" rx="0" fill="#000000"/>
<rect x="62" y="40" width="3" height="3" rx="0" fill="#000000"/>
<rect x="68" y="40" width="3" height="3" rx="0" fill="#000000"/>
<rect x="74" y="40" width="3" height="3" rx="0" fill="#000000"/>
<rect x="80" y="40" width="3" height="3" rx="0" fill="#000000"/>
<rect x="86" y="40" width="3" height="3" rx="0" fill="#000000"/>
<rect x="89" y="40" width="3" height="3" rx="0" fill="#000000"/>
<rect x="92" y="40" width="3" height="3" rx="0" fill="#000000"/>
<rect x="95" y="40" width="3" height="3" rx="0" fill="#000000"/>
<rect x="98" y="40" width="3" height="3" rx="0" fill="#000000"/>
<rect x="101" y="40" width="3" height="3" rx="0" fill="#000000"/>
<rect x="104" y="40" width="3" height="3" rx="0" fill="#000000"/>
<rect x="50" y="43" width="3" height="3" rx="0" fill="#000000"/>
<rect x="53" y="43" width="3" height="3" rx="0" fill="#000000"/>
<rect x="59" y="43" width="3" height="3" rx="0" fill="#000000"/>
<rect x="65" y="43" width="3" height="3" rx="0" fill="#000000"/>
<rect x="68" y="43" width="3" height="3" rx="0" fill="#000000"/>
<rect x="20" y="46" width="3" height="3" rx="0" fill="#000000"/>
<rect x="23" y="46" width="3" height="3" rx="0" fill="#000000"/>
<rect x="32" y="46" width="3" height="3" rx="0" fill="#000000"/>
<rect x="35" y="46" width="3" height="3" rx="0" fill="#000000"/>
<rect x="38" y="46" width="3" height="3" rx="0" fill="#000000"/>
<rect x="50" y="46" width="3" height="3" rx="0" fill="#000000"/>
<rect x="56" y="46" width="3" height="3" rx="0" fill="#000000"/>
<rect x="59" y="46" width="3" height="3" rx="0" fill="#000000"/>
<rect x="77" y="46" width="3" height="3" rx="0" fill="#000000"/>
<rect x="80" y="46" width="3" height="3" rx="0" fill="#000000"/>
<rect x="89" y="46" width="3" height="3" rx="0" fill="#000000"/>
<rect x="95" y="46" width="3" height="3" rx="0" fill="#000000"/>
<rect x="98" y="46" width="3" height="3" rx="0" fill="#000000"/>
<rect x="101" y="46" width="3" height="3" rx="0" fill="#000000"/>
<rect x="104" y="46" width="3" height="3" rx="0" fill="#000000"/>
<rect x="20" y="49" width="3" height="3" rx="0" fill="#000000"/>
<rect x="32" y="49" width="3" height="3" rx="0" fill="#000000"/>
<rect x="35" y="49" width="3" height="3" rx="0" fill="#000000"/>
<rect x="59" y="49" width="3" height="3" rx="0" fill="#000000"/>
<rect x="62" y="49" width="3" height="3" rx="0" fill="#000000"/>
<rect x="68" y="49" width="3" height="3" rx="0" fill="#000000"/>
<rect x="74" y="49" width="3" height="3" rx="0" fill="#000000"/>
<rect x="77" y="49" width="3" height="3" rx="0" fill="#000000"/>
<rect x="83" y="49" width="3" height="3" rx="0" fill="#000000"/>
<rect x="86" y="49" width="3" height="3" rx="0" fill="#000000"/>
<rect x="92" y="49" width="3" height="3" rx="0" fill="#000000"/>
<rect x="95" y="49" width="3" height="3" rx="0" fill="#000000"/>
<rect x="98" y="49" width="3" height="3" rx="0" fill="#000000"/>
<rect x="101" y="49" width="3" height="3" rx="0" fill="#000000"/>
<rect x="104" y="49" width="3" height="3" rx="0" fill="#000000"/>
<rect x="20" y="52" width="3" height="3" rx="0" fill="#000000"/>
<rect x="26" y="52" width="3" height="3" rx="0" fill="#000000"/>
<rect x="29" y="52" width="3" height="3" rx="0" fill="#000000"/>
<rect x="32" y="52" width="3" height="3" rx="0" fill="#000000"/>
<rect x="35" y="52" width="3" height="3" rx="0" fill="#000000"/>
<rect x="38" y="52" width="3" height="3" rx="0" fill="#000000"/>
<rect x="47" y="52" width="3" height="3" rx="0" fill="#000000"/>
<rect x="50" y="52" width="3" height="3" rx="0" fill="#000000"/>
<rect x="68" y="52" width="3" height="3" rx="0" fill="#000000"/>
<rect x="71" y="52" width="3" height="3" rx="0" fill="#000000"/>
<rect x="77" y="52" width="3" height="3" rx="0" fill="#000000"/>
<rect x="86" y="52" width="3" height="3" rx="0" fill="#000000"/>
<rect x="104" y="52" width="3" height="3" rx="0" fill="#000000"/>
<rect x="23" y="55" width="3" height="3" rx="0" fill="#000000"/>
<rect x="26" y="55" width="3" height="3" rx="0" fill="#000000"/>
<rect x="41" y="55" width="3" height="3" rx="0" fill="#000000"/>
<rect x="47" y="55" width="3" height="3" rx="0" fill="#000000"/>
<rect x="56" y="55" width="3" height="3" rx="0" fill="#000000"/>
<rect x="62" y="55" width="3" height="3" rx="0" fill="#000000"/>
<rect x="71" y="55" width="3" height="3" rx="0" fill="#000000"/>
<rect x="74" y="55" width="3" height="3" rx="0" fill="#000000"/>
<rect x="77" y="55" width="3" height="3" rx="0" fill="#000000"/>
<rect x="80" y="55" width="3" height="3" rx="0" fill="#000000"/>
<rect x="83" y="55" width="3" height="3" rx="0" fill="#000000"/>
<rect x="89" y="55" width="3" height="3" rx="0" fill="#000000"/>
<rect x="101" y="55" width="3" height="3" rx="0" fill="#000000"/>
<rect x="104" y="55" width="3" height="3" rx="0" fill="#000000"/>
<rect x="20" y="58" width="3" height="3" rx="0" fill="#000000"/>
<rect x="23" y="58" width="3" height="3" rx="0" fill="#000000"/>
<rect x="26" y="58" width="3" height="3" rx="0" fill="#000000"/>
<rect x="29" y="58" width="3" height="3" rx="0" fill="#000000"/>
<rect x="35" y="58" width="3" height="3" rx="0" fill="#000000"/>
<rect x="38" y="58" width="3" height="3" rx="0" fill="#000000"/>
<rect x="41" y="58" width="3" height="3" rx="0" fill="#000000"/>
<rect x="44" y="58" width="3" height="3" rx="0" fill="#000000"/>
<rect x="53" y="58" width="3" height="3" rx="0" fill="#000000"/>
<rect x="59" y="58" width="3" height="3" rx="0" fill="#000000"/>
<rect x="62" y="58" width="3" height="3" rx="0" fill="#000000"/>
<rect x="65" y="58" width="3" height="3" rx="0" fill="#000000"/>
<rect x="68" y="58" width="3" height="3" rx="0" fill="#000000"/>
<rect x="74" y="58" width="3" height="3" rx="0" fill="#000000"/>
<rect x="80" y="58" width="3" height="3" rx="0" fill="#000000"/>
<rect x="89" y="58" width="3" height="3" rx="0" fill="#000000"/>
<rect x="101" y="58" width="3" height="3" rx="0" fill="#000000"/>
<rect x="26" y="61" width="3" height="3" rx="0" fill="#000000"/>
<rect x="32" y="61" width="3" height="3" rx="0" fill="#000000"/>
<rect x="35" y="61" width="3" height="3" rx="0" fill="#000000"/>
<rect x="41" y="61" width="3" height="3" rx="0" fill="#000000"/>
<rect x="44" y="61" width="3" height="3" rx="0" fill="#000000"/>
<rect x="50" y="61" width="3" height="3" rx="0" fill="#000000"/>
<rect x="56" y="61" width="3" height="3" rx="0" fill="#000000"/>
<rect x="71" y="61" width="3" height="3" rx="0" fill="#000000"/>
<rect x="77" y="61" width="3" height="3" rx="0" fill="#000000"/>
<rect x="80" y="61" width="3" height="3" rx="0" fill="#000000"/>
<rect x="83" y="61" width="3" height="3" rx="0" fill="#000000"/>
<rect x="86" y="61" width="3" height="3" rx="0" fill="#000000"/>
<rect x="92" y="61" width="3" height="3" rx="0" fill="#000000"/>
<rect x="95" y="61" width="3" height="3" rx="0" fill="#000000"/>
<rect x="101" y="61" width="3" height="3" rx="0" fill="#000000"/>
<rect x="104" y="61" width="3" height="3" rx="0" fill="#000000"/>
<rect x="38" y="64" width="3" height="3" rx="0" fill="#000000"/>
<rect x="41" y="64" width="3" height="3" rx="0" fill="#000000"/>
<rect x="50" y="64" width="3" height="3" rx="0" fill="#000000"/>
<rect x="53" y="64" width="3" height="3" rx="0" fill="#000000"/>
<rect x="56" y="64" width="3" height="3" rx="0" fill="#000000"/>
<rect x="59" y="64" width="3" height="3" rx="0" fill="#000000"/>
<rect x="62" y="64" width="3" height="3" rx="0" fill="#000000"/>
<rect x="65" y="64" width="3" height="3" rx="0" fill="#000000"/>
<rect x="74" y="64" width="3" height="3" rx="0" fill="#000000"/>
<rect x="80" y="64" width="3" height="3" rx="0" fill="#000000"/>
<rect x="83" y="64" width="3" height="3" rx="0" fill="#000000"/>
<rect x="89" y="64" width="3" height="3" rx="0" fill="#000000"/>
<rect x="92" y="64" width="3" height="3" rx="0" fill="#000000"/>
<rect x="98" y="64" width="3" height="3" rx="0" fill="#000000"/>
<rect x="104" y="64" width="3" height="3" rx="0" fill="#000000"/>
<rect x="20" y="67" width="3" height="3" rx="0" fill="#000000"/>
<rect x="23" y="67" width="3" height="3" rx="0" fill="#000000"/>
<rect x="26" y="67" width="3" height="3" rx="0" fill="#000000"/>
<rect x="29" y="67" width="3" height="3" rx="0" fill="#000000"/>
<rect x="53" y="67" width="3" height="3" rx="0" fill="#000000"/>
<rect x="59" y="67" width="3" height="3" rx="0" fill="#000000"/>
<rect x="65" y="67" width="3" height="3" rx="0" fill="#000000"/>
<rect x="68" y="67" width="3" height="3" rx="0" fill="#000000"/>
<rect x="77" y="67" width="3" height="3" rx="0" fill="#000000"/>
<rect x="80" y="67" width="3" height="3" rx="0" fill="#000000"/>
<rect x="83" y="67" width="3" height="3" rx="0" fill="#000000"/>
<rect x="86" y="67" width="3" height="3" rx="0" fill="#000000"/>
<rect x="92" y="67" width="3" height="3" rx="0" fill="#000000"/>
<rect x="101" y="67" width="3" height="3" rx="0" fill="#000000"/>
<rect x="104" y="67" width="3" height="3" rx="0" fill="#000000"/>
<rect x="23" y="70" width="3" height="3" rx="0" fill="#000000"/>
<rect x="29" y="70" width="3" height="3" rx="0" fill="#000000"/>
<rect x="32" y="70" width="3" height="3" rx="0" fill="#000000"/>
<rect x="35" y="70" width="3" height="3" rx="0" fill="#000000"/>
<rect x="38" y="70" width="3" height="3" rx="0" fill="#000000"/>
<rect x="44" y="70" width="3" height="3" rx="0" fill="#000000"/>
<rect x="47" y="70" width="3" height="3" rx="0" fill="#000000"/>
<rect x="50" y="70" width="3" height="3" rx="0" fill="#000000"/>
<rect x="56" y="70" width="3" height="3" rx="0" fill="#000000"/>
<rect x="59" y="70" width="3" height="3" rx="0" fill="#000000"/>
<rect x="80" y="70" width="3" height="3" rx="0" fill="#000000"/>
<rect x="95" y="70" width="3" height="3" rx="0" fill="#000000"/>
<rect x="101" y="70" width="3" height="3" rx="0" fill="#000000"/>
<rect x="20" y="73" width="3" height="3" rx="0" fill="#000000"/>
<rect x="26" y="73" width="3" height="3" rx="0" fill="#000000"/>
<rect x="32" y="73" width="3" height="3" rx="0" fill="#000000"/>
<rect x="35" y="73" width="3" height="3" rx="0" fill="#000000"/>
<rect x="44" y="73" width="3" height="3" rx="0" fill="#000000"/>
<rect x="47" y="73" width="3" height="3" rx="0" fill="#000000"/>
<rect x="59" y="73" width="3" height="3" rx="0" fill="#000000"/>
<rect x="62" y="73" width="3" height="3" rx="0" fill="#000000"/>
<rect x="68" y="73" width="3" height="3" rx="0" fill="#000000"/>
<rect x="74" y="73" width="3" height="3" rx="0" fill="#000000"/>
<rect x="80" y="73" width="3" height="3" rx="0" fill="#000000"/>
<rect x="86" y="73" width="3" height="3" rx="0" fill="#000000"/>
<rect x="92" y="73" width="3" height="3" rx="0" fill="#000000"/>
<rect x="101" y="73" width="3" height="3" rx="0" fill="#000000"/>
<rect x="104" y="73" width="3" height="3" rx="0" fill="#000000"/>
<rect x="29" y="76" width="3" height="3" rx="0" fill="#000000"/>
<rect x="32" y="76" width="3" height="3" rx="0" fill="#000000"/>
<rect x="38" y="76" width="3" height="3" rx="0" fill="#000000"/>
<rect x="44" y="76" width="3" height="3" rx="0" fill="#000000"/>
<rect x="47" y="76" width="3" height="3" rx="0" fill="#000000"/>
<rect x="50" y="76" width="3" height="3" rx="0" fill="#000000"/>
<rect x="68" y="76" width="3" height="3" rx="0" fill="#000000"/>
<rect x="71" y="76" width="3" height="3" rx="0" fill="#000000"/>
<rect x="80" y="76" width="3" height="3" rx="0" fill="#000000"/>
<rect x="89" y="76" width="3" height="3" rx="0" fill="#000000"/>
<rect x="92" y="76" width="3" height="3" rx="0" fill="#000000"/>
<rect x="95" y="76" width="3" height="3" rx="0" fill="#000000"/>
<rect x="98" y="76" width="3" height="3" rx="0" fill="#000000"/>
<rect x="104" y="76" width="3" height="3" rx="0" fill="#000000"/>
<rect x="26" y="79" width="3" height="3" rx="0" fill="#000000"/>
<rect x="29" y="79" width="3" height="3" rx="0" fill="#000000"/>
<rect x="32" y="79" width="3" height="3" rx="0" fill="#000000"/>
<rect x="35" y="79" width="3" height="3" rx="0" fill="#000000"/>
<rect x="41" y="79" width="3" height="3" rx="0" fill="#000000"/>
<rect x="44" y="79" width="3" height="3" rx="0" fill="#000000"/>
<rect x="47" y="79" width="3" height="3" rx="0" fill="#000000"/>
<rect x="56" y="79" width="3" height="3" rx="0" fill="#000000"/>
<rect x="62" y="79" width="3" height="3" rx="0" fill="#000000"/>
<rect x="71" y="79" width="3" height="3" rx="0" fill="#000000"/>
<rect x="74" y="79" width="3" height="3" rx="0" fill="#000000"/>
<rect x="83" y="79" width="3" height="3" rx="0" fill="#000000"/>
<rect x="89" y="79" width="3" height="3" rx="0" fill="#000000"/>
<rect x="101" y="79" width="3" height="3" rx="0" fill="#000000"/>
<rect x="104" y="79" width="3" height="3" rx="0" fill="#000000"/>
<rect x="20" y="82" width="3" height="3" rx="0" fill="#000000"/>
<rect x="23" y="82" width="3" height="3" rx="0" fill="#000000"/>
<rect x="26" y="82" width="3" height="3" rx="0" fill="#000000"/>
<rect x="29" y="82" width="3" height="3" rx="0" fill="#000000"/>
<rect x="32" y="82" width="3" height="3" rx="0" fill="#000000"/>
<rect x="35" y="82" width="3" height="3" rx="0" fill="#000000"/>
<rect x="38" y="82" width="3" height="3" rx="0" fill="#000000"/>
<rect x="41" y="82" width="3" height="3" rx="0" fill="#000000"/>
<rect x="50" y="82" width="3" height="3" rx="0" fill="#000000"/>
<rect x="53" y="82" width="3" height="3" rx="0" fill="#000000"/>
<rect x="59" y="82" width="3" height="3" rx="0" fill="#000000"/>
<rect x="62" y="82" width="3" height="3" rx="0" fill="#000000"/>
<rect x="65" y="82" width="3" height="3" rx="0" fill="#000000"/>
<rect x="68" y="82" width="3" height="3" rx="0" fill="#000000"/>
<rect x="74" y="82" width="3" height="3" rx="0" fill="#000000"/>
<rect x="77" y="82" width="3" height="3" rx="0" fill="#000000"/>
<rect x="80" y="82" width="3" height="3" rx="0" fill="#000000"/>
<rect x="83" y="82" width="3" height="3" rx="0" fill="#000000"/>
<rect x="86" y="82" width="3" height="3" rx="0" fill="#000000"/>
<rect x="89" y="82" width="3" height="3" rx="0" fill="#000000"/>
<rect x="92" y="82" width="3" height="3" rx="0" fill="#000000"/>
<rect x="95" y="82" width="3" height="3" rx="0" fill="#000000"/>
<rect x="104" y="82" width="3" height="3" rx="0" fill="#000000"/>
<rect x="44" y="85" width="3" height="3" rx="0" fill="#000000"/>
<rect x="47" y="85" width="3" height="3" rx="0" fill="#000000"/>
<rect x="50" y="85" width="3" height="3" rx="0" fill="#000000"/>
<rect x="56" y="85" width="3" height="3" rx="0" fill="#000000"/>
<rect x="71" y="85" width="3" height="3" rx="0" fill="#000000"/>
<rect x="80" y="85" width="3" height="3" rx="0" fill="#000000"/>
<rect x="92" y="85" width="3" height="3" rx="0" fill="#000000"/>
<rect x="104" y="85" width="3" height="3" rx="0" fill="#000000"/>
<rect x="20" y="88" width="3" height="3" rx="0" fill="#000000"/>
<rect x="23" y="88" width="3" height="3" rx="0" fill="#000000"/>
<rect x="26" y="88" width="3" height="3" rx="0" fill="#000000"/>
<rect x="29" y="88" width="3" height="3" rx="0" fill="#000000"/>
<rect x="32" y="88" width="3" height="3" rx="0" fill="#000000"/>
<rect x="35" y="88" width="3" height="3" rx="0" fill="#000000"/>
<rect x="38" y="88" width="3" height="3" rx="0" fill="#000000"/>
<rect x="53" y="88" width="3" height="3" rx="0" fill="#000000"/>
<rect x="56" y="88" width="3" height="3" rx="0" fill="#000000"/>
<rect x="59" y="88" width="3" height="3" rx="0" fill="#000000"/>
<rect x="62" y="88" width="3" height="3" rx="0" fill="#000000"/>
<rect x="65" y="88" width="3" height="3" rx="0" fill="#000000"/>
<rect x="74" y="88" width="3" height="3" rx="0" fill="#000000"/>
<rect x="77" y="88" width="3" height="3" rx="0" fill="#000000"/>
<rect x="80" y="88" width="3" height="3" rx="0" fill="#000000"/>
<rect x="86" y="88" width="3" height="3" rx="0" fill="#000000"/>
<rect x="92" y="88" width="3" height="3" rx="0" fill="#000000"/>
<rect x="95" y="88" width="3" height="3" rx="0" fill="#000000"/>
<rect x="98" y="88" width="3" height="3" rx="0" fill="#000000"/>
<rect x="104" y="88" width="3" height="3" rx="0" fill="#000000"/>
<rect x="20" y="91" width="3" height="3" rx="0" fill="#000000"/>
<rect x="38" y="91" width="3" height="3" rx="0" fill="#000000"/>
<rect x="44" y="91" width="3" height="3" rx="0" fill="#000000"/>
<rect x="47" y="91" width="3" height="3" rx="0" fill="#000000"/>
<rect x="50" y="91" width="3" height="3" rx="0" fill="#000000"/>
<rect x="53" y="91" width="3" height="3" rx="0" fill="#000000"/>
<rect x="59" y="91" width="3" height="3" rx="0" fill="#000000"/>
<rect x="65" y="91" width="3" height="3" rx="0" fill="#000000"/>
<rect x="68" y="91" width="3" height="3" rx="0" fill="#000000"/>
<rect x="80" y="91" width="3" height="3" rx="0" fill="#000000"/>
<rect x="92" y="91" width="3" height="3" rx="0" fill="#000000"/>
<rect x="20" y="94" width="3" height="3" rx="0" fill="#000000"/>
<rect x="26" y="94" width="3" height="3" rx="0" fill="#000000"/>
<rect x="29" y="94" width="3" height="3" rx="0" fill="#000000"/>
<rect x="32" y="94" width="3" height="3" rx="0" fill="#000000"/>
<rect x="38" y="94" width="3" height="3" rx="0" fill="#000000"/>
<rect x="44" y="94" width="3" height="3" rx="0" fill="#000000"/>
<rect x="56" y="94" width="3" height="3" rx="0" fill="#000000"/>
<rect x="59" y="94" width="3" height="3" rx="0" fill="#000000"/>
<rect x="77" y="94" width="3" height="3" rx="0" fill="#000000"/>
<rect x="80" y="94" width="3" height="3" rx="0" fill="#000000"/>
<rect x="83" y="94" width="3" height="3" rx="0" fill="#000000"/>
<rect x="86" y="94" width="3" height="3" rx="0" fill="#000000"/>
<rect x="89" y="94" width="3" height="3" rx="0" fill="#000000"/>
<rect x="92" y="94" width="3" height="3" rx="0" fill="#000000"/>
<rect x="20" y="97" width="3" height="3" rx="0" fill="#000000"/>
<rect x="26" y="97" width="3" height="3" rx="0" fill="#000000"/>
<rect x="29" y="97" width="3" height="3" rx="0" fill="#000000"/>
<rect x="32" y="97" width="3" height="3" rx="0" fill="#000000"/>
<rect x="38" y="97" width="3" height="3" rx="0" fill="#000000"/>
<rect x="47" y="97" width="3" height="3" rx="0" fill="#000000"/>
<rect x="50" y="97" width="3" height="3" rx="0" fill="#000000"/>
<rect x="59" y="97" width="3" height="3" rx="0" fill="#000000"/>
<rect x="62" y="97" width="3" height="3" rx="0" fill="#000000"/>
<rect x="68" y="97" width="3" height="3" rx="0" fill="#000000"/>
<rect x="74" y="97" width="3" height="3" rx="0" fill="#000000"/>
<rect x="77" y="97" width="3" height="3" rx="0" fill="#000000"/>
<rect x="89" y="97" width="3" height="3" rx="0" fill="#000000"/>
<rect x="95" y="97" width="3" height="3" rx="0" fill="#000000"/>
<rect x="98" y="97" width="3" height="3" rx="0" fill="#000000"/>
<rect x="101" y="97" width="3" height="3" rx="0" fill="#000000"/>
<rect x="20" y="100" width="3" height="3" rx="0" fill="#000000"/>
<rect x="26" y="100" width="3" height="3" rx="0" fill="#000000"/>
<rect x="29" y="100" width="3" height="3" rx="0" fill="#000000"/>
<rect x="32" y="100" width="3" height="3" rx="0" fill="#000000"/>
<rect x="38" y="100" width="3" height="3" rx="0" fill="#000000"/>
<rect x="47" y="100" width="3" height="3" rx="0" fill="#000000"/>
<rect x="68" y="100" width="3" height="3" rx="0" fill="#000000"/>
<rect x="71" y="100" width="3" height="3" rx="0" fill="#000000"/>
<rect x="77" y="100" width="3" height="3" rx="0" fill="#000000"/>
<rect x="80" y="100" width="3" height="3" rx="0" fill="#000000"/>
<rect x="89" y="100" width="3" height="3" rx="0" fill="#000000"/>
<rect x="95" y="100" width="3" height="3" rx="0" fill="#000000"/>
<rect x="101" y="100" width="3" height="3" rx="0" fill="#000000"/>
<rect x="104" y="100" width="3" height="3" rx="0" fill="#000000"/>
<rect x="20" y="103" width="3" height="3" rx="0" fill="#000000"/>
<rect x="38" y="103" width="3" height="3" rx="0" fill="#000000"/>
<rect x="44" y="103" width="3" height="3" rx="0" fill="#000000"/>
<rect x="56" y="103" width="3" height="3" rx="0" fill="#000000"/>
<rect x="62" y="103" width="3" height="3" rx="0" fill="#000000"/>
<rect x="71" y="103" width="3" height="3" rx="0" fill="#000000"/>
<rect x="74" y="103" width="3" height="3" rx="0" fill="#000000"/>
<rect x="80" y="103" width="3" height="3" rx="0" fill="#000000"/>
<rect x="86" y="103" width="3" height="3" rx="0" fill="#000000"/>
<rect x="101" y="103" width="3" height="3" rx="0" fill="#000000"/>
<rect x="104" y="103" width="3" height="3" rx="0" fill="#000000"/>
<rect x="20" y="106" width="3" height="3" rx="0" fill="#000000"/>
<rect x="23" y="106" width="3" height="3" rx="0" fill="#000000"/>
<rect x="26" y="106" width="3" height="3" rx="0" fill="#000000"/>
<rect x="29" y="106" width="3" height="3" rx="0" fill="#000000"/>
<rect x="32" y="106" width="3" height="3" rx="0" fill="#000000"/>
<rect x="35" y="106" width="3" height="3" rx="0" fill="#000000"/>
<rect x="38" y="106" width="3" height="3" rx="0" fill="#000000"/>
<rect x="44" y="106" width="3" height="3" rx="0" fill="#000000"/>
<rect x="50" y="106" width="3" height="3" rx="0" fill="#000000"/>
<rect x="53" y="106" width="3" height="3" rx="0" fill="#000000"/>
<rect x="59" y="106" width="3" height="3" rx="0" fill="#000000"/>
<rect x="62" y="106" width="3" height="3" rx="0" fill="#000000"/>
<rect x="65" y="106" width="3" height="3" rx="0" fill="#000000"/>
<rect x="68" y="106" width="3" height="3" rx="0" fill="#000000"/>
<rect x="74" y="106" width="3" height="3" rx="0" fill="#000000"/>
<rect x="77" y="106" width="3" height="3" rx="0" fill="#000000"/>
<rect x="80" y="106" width="3" height="3" rx="0" fill="#000000"/>
<rect x="101" y="106" width="3" height="3" rx="0" fill="#000000"/>
</g>
</svg>
